<svg width="22" height="22" viewBox="0 0 22 22" fill="none" xmlns="http://www.w3.org/2000/svg">
<g clip-path="url(#clip0_104_72)">
<rect width="22" height="22" rx="11" fill="#1DA1F2"/>
<path d="M16.3912 8.62241C16.3912 8.74272 16.3912 8.86303 16.3912 8.96616C16.3912 12.524 13.6756 16.6318 8.72556 16.6318C7.19587 16.6318 5.7865 16.1849 4.58337 15.4287C4.78962 15.4458 5.01306 15.463 5.21931 15.463C6.474 15.463 7.64275 15.0333 8.57087 14.3115C7.38494 14.2943 6.38806 13.5037 6.0615 12.438C6.23337 12.4724 6.38806 12.4896 6.57712 12.4896C6.81775 12.4896 7.05837 12.4552 7.28181 12.3865C6.04431 12.1458 5.11619 11.063 5.11619 9.75678C5.11619 9.73959 5.11619 9.73959 5.11619 9.72241C5.47712 9.92866 5.88962 10.049 6.3365 10.0662C5.61462 9.58491 5.13337 8.75991 5.13337 7.81459C5.13337 7.31616 5.27087 6.85209 5.49431 6.45678C6.81775 8.08959 8.8115 9.15522 11.0459 9.27553C10.9943 9.08647 10.9771 8.86303 10.9771 8.65678C10.9771 7.16147 12.1802 5.95834 13.6756 5.95834C14.449 5.95834 15.1537 6.28491 15.6349 6.80053C16.2537 6.68022 16.8209 6.45678 17.3537 6.14741C17.1474 6.78334 16.7177 7.29897 16.1677 7.64272C16.7177 7.57397 17.2334 7.43647 17.7146 7.21303C17.3709 7.76303 16.924 8.24428 16.3912 8.62241Z" fill="#FEFEFE"/>
</g>
<defs>
<clipPath id="clip0_104_72">
<rect width="22" height="22" fill="white"/>
</clipPath>
</defs>
</svg>
