<svg width="20" height="21" viewBox="0 0 20 21" fill="none" xmlns="http://www.w3.org/2000/svg">
<path d="M5.48663 5.07041C5.48663 2.68434 7.42092 0.750039 9.80697 0.750039C10.956 0.745169 12.0596 1.1982 12.8738 2.00896C13.688 2.81971 14.1457 3.9214 14.1457 5.07041M6.84132 9.57382H6.88709M12.672 9.57382H12.7178M5.62393 19.972H13.9718C17.0381 19.972 19.3905 18.8644 18.7224 14.4068L17.9443 8.36559C17.5324 6.14133 16.1137 5.29007 14.8688 5.29007H4.69029C3.42713 5.29007 2.09075 6.20541 1.61477 8.36559L0.836736 14.4068C0.269236 18.361 2.55757 19.972 5.62393 19.972Z" stroke="#8F959E" stroke-width="1.5" stroke-linecap="round" stroke-linejoin="round"/>
</svg>
